# xmcd
#
# Track frame offsets:
#	150
#	12712
#	25777
#	46140
#	59705
#	76942
#	93270
#	110985
#	127545
#	143285
#	156322
#	168150
#	186232
#	202877
#	221275
#	234997
#	252447
#	265425
#
# Disc length: 3683 seconds
#
# Revision: 0
# Processed by: cddbd v1.5.2PL0 Copyright (c) Steve Scherf et al.
# Submitted via: EZCDAudioConverter 3.1.5.1
#
DISCID=ee0e6112
DTITLE=Γιώργος Νταλάρας - Το Μουσικό Κουτί_Ρεμπέτικα CD1
DYEAR=1997
DGENRE=rempetiko
TTITLE0=Της Κοινωνίας Η Διαφορά
TTITLE1=Πέφτεις Σε Λάθη
TTITLE2=Θα Κάνω Ντου Βρε Πονηρή
TTITLE3=Άλλα Μου Λεν Τα Μάτια Σου
TTITLE4=Του Βοτανικού Ο Μάγκας
TTITLE5=Παραπονιάρικο Μου
TTITLE6=Γιοβάν Τσαούς
TTITLE7=Το Βαρβάκειο
TTITLE8=Ηρθ ' Ο Χειμώνας
TTITLE9=Εγώ Ποτέ Δεν Αγαπώ
TTITLE10=Ένα Τραγούδι Απ Τ Αλγέρι (Η Μπαρμπαριά)
TTITLE11=Το Γράμμα
TTITLE12=Όλοι Οι Ρεμπέτες Του Ντουνιά
TTITLE13=Σαλταδόρος
TTITLE14=Τι Σου Λέει Η Μάνα Σου Για Μένα
TTITLE15=Γλυκοχαράζουν Τα Βουνά
TTITLE16=Ότι Κι Αν Πω Δεν Σε Ξεχνώ
TTITLE17=Τα Νέα Της Αλεξάνδρας
EXTD=
EXTT0=
EXTT1=
EXTT2=
EXTT3=
EXTT4=
EXTT5=
EXTT6=
EXTT7=
EXTT8=
EXTT9=
EXTT10=
EXTT11=
EXTT12=
EXTT13=
EXTT14=
EXTT15=
EXTT16=
EXTT17=
PLAYORDER=
